<svg width="20" height="44" viewBox="0 0 40 64" fill="none" xmlns="http://www.w3.org/2000/svg">
<path d="M1 53.1071V10.994C1 10.6165 1.21259 10.2712 1.54964 10.1012L16.9045 2.35601C17.5696 2.02052 18.3548 2.50393 18.3548 3.24885V60.1146C18.3548 60.8426 17.6019 61.3266 16.9397 61.0244L1.58482 54.0168C1.22857 53.8543 1 53.4987 1 53.1071Z" stroke="#1AC5EB" stroke-width="2"/>
<path d="M22.6452 22.2258H38C38.5523 22.2258 39 21.7781 39 21.2258V10.994C39 10.6165 38.7874 10.2712 38.4504 10.1012L23.0955 2.35601C22.4304 2.02052 21.6452 2.50393 21.6452 3.24885V21.2258C21.6452 21.7781 22.0929 22.2258 22.6452 22.2258Z" stroke="#E681FF" stroke-width="2"/>
<path d="M22.6452 25.5161H38C38.5523 25.5161 39 25.9638 39 26.5161V36.7479C39 37.1254 38.7874 37.4708 38.4504 37.6408L23.0955 45.3859C22.4304 45.7214 21.6452 45.238 21.6452 44.4931V26.5161C21.6452 25.9638 22.0929 25.5161 22.6452 25.5161Z" stroke="#69FF22" stroke-width="2"/>
</svg>
